<svg xmlns="http://www.w3.org/2000/svg" width="172.88" height="114.26" viewBox="0 0 172.88 114.26"><title>icon</title><g id="Layer_1" data-name="Layer 1"><g opacity="0.5"><path d="M85.7565.965C39.6579.9687.7116,26.8055.7116,57.3858c0,31.834,36.5639,55.8383,85.0449,55.8383,28.2954,0,55.122-9.945,71.764-26.6,9.16-9.1664,14.1983-19.5532,14.1883-29.2378-.0125-15.0783-8.8822-29.24-24.9755-39.8813C130.5976,6.837,108.9445.965,85.7565.965" fill="#ffb612"/><path d="M26.2833,94.7746C11.4925,84.91,3.3453,71.6265,3.3453,57.382c0-28.65,38.5113-53.7833,82.4112-53.7871,45.9173-.0025,83.2924,24.1268,83.32,53.7871.0075,8.9862-4.7574,18.7069-13.42,27.3767-16.157,16.1708-42.2874,25.8279-69.9,25.8279-23.0705,0-44.1924-5.618-59.4732-15.8133" fill="#203731"/><path d="M122.6553,42.6012C116.0348,32.74,101.5385,25.9017,84.469,25.9017c-23.428,0-42.425,12.8871-42.425,28.7816s13.41,29.8491,42.425,29.8328c17.4245-.0075,31.434-7.5333,37.9788-17.4182l-49.4922.086-.1521-12.8571,85.9123-.03a27.2461,27.2461,0,0,1,.2362,3.08c0,24.7467-32.769,44.8074-73.189,44.8074-40.4175,0-73.1852-20.0594-73.1852-44.8073S47.29,11.811,85.763,11.661c32.0227-.1221,59.2432,13.11,69.17,30.919l-32.2765.02" fill="#fff"/></g></g><g id="mike"><path d="M120.2877,38.0693a2.6582,2.6582,0,0,0-2.6581,2.6581V57.3359a31.8644,31.8644,0,0,1-63.7289,0V40.7272a2.6581,2.6581,0,1,0-5.3162,0V57.3357A37.2282,37.2282,0,0,0,83.1069,94.42v13.798H69.3577a2.6581,2.6581,0,0,0,0,5.3162h32.8141a2.6581,2.6581,0,0,0,0-5.3162H88.4229V94.42a37.2282,37.2282,0,0,0,34.5224-37.0843V40.7272A2.6575,2.6575,0,0,0,120.2877,38.0693Z"/><path d="M87.5364.31H83.9937A22.0622,22.0622,0,0,0,61.9564,22.3475V59.107A22.0622,22.0622,0,0,0,83.9937,81.1443h3.5427A22.0622,22.0622,0,0,0,109.5737,59.107V22.3475A22.0622,22.0622,0,0,0,87.5364.31Zm16.7213,28.9369H94.6221a2.6581,2.6581,0,0,0,0,5.3162h9.6355v7.3989H94.6221a2.6581,2.6581,0,0,0,0,5.3162h9.6355v7.3994H94.6221a2.6581,2.6581,0,0,0,0,5.3162h9.6116A16.7416,16.7416,0,0,1,87.5366,75.8283H83.9939A16.7416,16.7416,0,0,1,67.2967,59.994h9.6116a2.6581,2.6581,0,1,0,0-5.3162H67.2728V47.2785h9.6355a2.6581,2.6581,0,0,0,0-5.3162H67.2728V34.5633h9.6355a2.6581,2.6581,0,0,0,0-5.3162H67.2728v-6.9A16.7427,16.7427,0,0,1,76.75,7.2784v7.515a2.6581,2.6581,0,0,0,5.3162,0V5.741c.6331-.0732,6.7658-.0732,7.3989,0v9.0524a2.6581,2.6581,0,1,0,5.3162,0V7.2784a16.7421,16.7421,0,0,1,9.4767,15.0689Z"/></g></svg>